<svg xmlns="http://www.w3.org/2000/svg" xmlns:xlink="http://www.w3.org/1999/xlink" width="500" zoomAndPan="magnify" viewBox="0 0 375 374.999991" height="500" preserveAspectRatio="xMidYMid meet" version="1.0"><defs><clipPath id="aa74a072c3"><path d="M 109.292969 48.898438 L 266 48.898438 L 266 326.398438 L 109.292969 326.398438 Z M 109.292969 48.898438 " clip-rule="nonzero"/></clipPath><clipPath id="6b09189986"><path d="M 203.539062 65.113281 L 236.539062 65.113281 L 236.539062 104.863281 L 203.539062 104.863281 Z M 203.539062 65.113281 " clip-rule="nonzero"/></clipPath><clipPath id="3eb857555b"><path d="M 203.539062 71 L 236 71 L 236 104 L 203.539062 104 Z M 203.539062 71 " clip-rule="nonzero"/></clipPath></defs><g clip-path="url(#aa74a072c3)"><path fill="#f50ca0" d="M 147.132812 209.589844 C 163.136719 192.632812 178.304688 173.761719 167.914062 145.214844 C 186.664062 155.011719 200.519531 170.417969 208.160156 188.570312 C 216.164062 207.320312 217.359375 228.941406 210.550781 250.078125 C 205.054688 248.050781 199.921875 245.183594 195.5 241.480469 C 190.605469 237.539062 186.425781 232.640625 183.199219 227.027344 L 176.035156 214.609375 L 180.332031 228.34375 C 182.960938 236.824219 187.5 244.347656 193.589844 250.558594 C 199.5625 256.769531 206.96875 261.546875 215.328125 264.410156 L 216.640625 264.890625 L 217.238281 263.695312 C 221.300781 255.691406 224.046875 247.214844 225.71875 238.496094 C 227.152344 230.613281 227.628906 222.609375 227.152344 214.726562 C 232.167969 216.878906 237.304688 218.667969 242.558594 219.980469 C 248.648438 221.535156 254.980469 222.371094 261.429688 222.609375 L 262.863281 222.609375 L 263.101562 221.175781 C 265.011719 210.667969 264.414062 200.15625 261.429688 190.480469 C 258.800781 181.882812 254.261719 173.878906 247.933594 166.832031 C 250.324219 166.355469 252.589844 165.878906 254.859375 165.160156 C 258.085938 164.207031 261.191406 163.011719 264.414062 161.339844 L 265.730469 160.625 L 265.132812 159.191406 C 256.414062 140.320312 241.246094 126.34375 223.332031 118.820312 C 205.414062 111.175781 184.871094 109.984375 165.285156 116.789062 L 156.6875 119.777344 L 159.789062 116.3125 C 167.914062 107.117188 175.316406 98.757812 179.738281 90.875 C 187.140625 77.496094 185.945312 65.671875 165.644531 54.445312 L 154.894531 48.472656 L 163.730469 56.953125 C 179.378906 72.003906 163.253906 92.425781 145.21875 115.476562 C 142.234375 119.179688 139.25 123 136.382812 126.824219 L 133.277344 127.898438 L 136.023438 127.183594 C 116.675781 152.742188 100.671875 180.6875 123.242188 208.515625 L 125.992188 211.980469 L 125.035156 212.9375 C 123.363281 214.726562 121.8125 216.519531 120.496094 218.308594 C 113.449219 227.269531 109.867188 235.628906 109.746094 243.390625 C 109.628906 251.15625 112.972656 258.203125 119.898438 264.410156 C 120.734375 265.128906 121.570312 265.84375 122.527344 266.5625 L 128.378906 271.101562 L 124.917969 264.53125 C 114.285156 244.226562 128.378906 229.417969 143.667969 213.414062 L 145.339844 211.621094 L 144.144531 215.085938 C 137.097656 235.628906 154.296875 248.289062 173.046875 262.023438 C 190.605469 274.921875 209.476562 288.65625 208.996094 310.632812 L 208.757812 326.277344 L 212.222656 311.109375 C 219.507812 279.101562 195.859375 262.621094 174.839844 247.929688 C 160.269531 237.777344 146.890625 228.460938 147.371094 215.800781 L 147.609375 209.472656 Z M 225.597656 203.976562 C 225.003906 200.515625 224.167969 197.050781 223.089844 193.585938 C 222.015625 189.886719 220.582031 186.300781 219.03125 182.71875 C 217.957031 180.328125 216.761719 177.941406 215.566406 175.671875 C 214.730469 174.238281 213.894531 172.804688 213.058594 171.371094 C 216.878906 171.253906 220.703125 171.132812 224.644531 170.773438 C 229.183594 170.296875 233.722656 169.699219 238.140625 168.746094 C 244.113281 174.714844 248.648438 181.644531 251.515625 189.289062 C 254.261719 196.691406 255.457031 204.8125 255.101562 213.054688 C 250.203125 212.21875 245.304688 211.144531 240.527344 209.710938 C 235.511719 208.160156 230.496094 206.246094 225.71875 203.976562 Z M 185.589844 142.707031 C 177.226562 136.976562 167.914062 132.675781 157.878906 129.929688 L 155.371094 129.210938 L 155.851562 131.71875 C 164.449219 175.550781 154.535156 184.988281 127.304688 210.667969 L 126.945312 210.90625 L 125.632812 207.203125 C 113.6875 172.566406 133.992188 145.457031 153.582031 123 L 165.761719 120.015625 C 183.082031 115.835938 200.875 117.625 216.402344 124.433594 C 231.332031 131.003906 244.351562 141.992188 253.070312 156.683594 C 245.785156 158.59375 238.378906 160.144531 230.972656 161.101562 C 223.089844 162.175781 215.089844 162.773438 207.207031 162.894531 C 201.117188 155.011719 193.710938 148.203125 185.46875 142.589844 Z M 185.589844 142.707031 " fill-opacity="1" fill-rule="evenodd"/></g><path fill="#74cae2" d="M 152.027344 260.46875 C 147.132812 260.46875 142.59375 262.5 139.367188 265.726562 C 136.144531 268.949219 134.113281 273.488281 134.113281 278.386719 C 134.113281 283.28125 136.144531 287.820312 139.367188 291.046875 C 142.59375 294.269531 147.132812 296.300781 152.027344 296.300781 C 156.925781 296.300781 161.464844 294.269531 164.6875 291.046875 C 167.914062 287.820312 169.941406 283.28125 169.941406 278.386719 C 169.941406 273.488281 167.914062 268.949219 164.6875 265.726562 C 161.464844 262.5 156.925781 260.46875 152.027344 260.46875 Z M 152.027344 260.46875 " fill-opacity="1" fill-rule="evenodd"/><g clip-path="url(#6b09189986)"><path fill="#f50ca0" d="M 223.816406 150.058594 C 209.324219 165.417969 195.589844 182.503906 205 208.351562 C 188.023438 199.480469 175.476562 185.53125 168.554688 169.09375 C 161.308594 152.117188 160.230469 132.542969 166.394531 113.398438 C 171.367188 115.238281 176.019531 117.832031 180.019531 121.1875 C 184.453125 124.753906 188.238281 129.1875 191.15625 134.273438 L 197.648438 145.519531 L 193.753906 133.082031 C 191.375 125.402344 187.265625 118.589844 181.75 112.96875 C 176.34375 107.34375 169.636719 103.019531 162.066406 100.421875 L 160.878906 99.988281 L 160.335938 101.070312 C 156.660156 108.316406 154.171875 115.996094 152.660156 123.890625 C 151.359375 131.027344 150.929688 138.273438 151.359375 145.410156 C 146.820312 143.464844 142.167969 141.839844 137.410156 140.652344 C 131.894531 139.246094 126.164062 138.488281 120.324219 138.273438 L 119.027344 138.273438 L 118.808594 139.570312 C 117.078125 149.085938 117.621094 158.605469 120.324219 167.363281 C 122.703125 175.148438 126.8125 182.394531 132.542969 188.777344 C 130.382812 189.207031 128.328125 189.640625 126.269531 190.289062 C 123.351562 191.15625 120.539062 192.238281 117.621094 193.75 L 116.429688 194.398438 L 116.972656 195.699219 C 124.867188 212.785156 138.601562 225.4375 154.820312 232.25 C 171.042969 239.171875 189.644531 240.253906 207.378906 234.089844 L 215.164062 231.386719 L 212.355469 234.519531 C 205 242.847656 198.296875 250.417969 194.292969 257.554688 C 187.589844 269.667969 188.671875 280.375 207.054688 290.539062 L 216.789062 295.945312 L 208.785156 288.269531 C 194.617188 274.640625 209.21875 256.148438 225.546875 235.277344 C 228.25 231.925781 230.953125 228.464844 233.550781 225.003906 L 236.363281 224.03125 L 233.875 224.679688 C 251.394531 201.535156 265.886719 176.230469 245.445312 151.035156 L 242.957031 147.898438 L 243.824219 147.03125 C 245.339844 145.410156 246.742188 143.789062 247.933594 142.167969 C 254.3125 134.054688 257.558594 126.484375 257.667969 119.457031 C 257.773438 112.425781 254.746094 106.046875 248.472656 100.421875 C 247.71875 99.773438 246.960938 99.125 246.09375 98.476562 L 240.796875 94.367188 L 243.933594 100.3125 C 253.558594 118.699219 240.796875 132.109375 226.953125 146.601562 L 225.441406 148.222656 L 226.519531 145.085938 C 232.902344 126.484375 217.328125 115.023438 200.351562 102.585938 C 184.453125 90.90625 167.367188 78.46875 167.796875 58.570312 L 168.015625 44.402344 L 164.878906 58.136719 C 158.28125 87.121094 179.695312 102.042969 198.726562 115.347656 C 211.921875 124.539062 224.035156 132.972656 223.601562 144.4375 L 223.382812 150.167969 Z M 152.765625 155.144531 C 153.308594 158.28125 154.066406 161.414062 155.039062 164.550781 C 156.011719 167.902344 157.308594 171.148438 158.714844 174.394531 C 159.6875 176.554688 160.769531 178.71875 161.851562 180.773438 C 162.609375 182.070312 163.363281 183.367188 164.121094 184.667969 C 160.660156 184.773438 157.199219 184.882812 153.632812 185.207031 C 149.523438 185.640625 145.414062 186.179688 141.410156 187.046875 C 136.003906 181.636719 131.894531 175.367188 129.300781 168.445312 C 126.8125 161.738281 125.730469 154.386719 126.054688 146.925781 C 130.488281 147.679688 134.921875 148.65625 139.25 149.953125 C 143.789062 151.359375 148.332031 153.089844 152.660156 155.144531 Z M 188.996094 210.621094 C 196.566406 215.8125 205 219.707031 214.085938 222.191406 L 216.355469 222.839844 L 215.921875 220.570312 C 208.136719 180.882812 217.113281 172.339844 241.769531 149.085938 L 242.09375 148.871094 L 243.285156 152.222656 C 254.097656 183.585938 235.714844 208.132812 217.976562 228.464844 L 206.945312 231.167969 C 191.265625 234.953125 175.152344 233.332031 161.09375 227.167969 C 147.574219 221.21875 135.789062 211.269531 127.894531 197.96875 C 134.492188 196.238281 141.195312 194.832031 147.898438 193.96875 C 155.039062 192.992188 162.285156 192.453125 169.421875 192.34375 C 174.9375 199.480469 181.640625 205.648438 189.101562 210.730469 Z M 188.996094 210.621094 " fill-opacity="1" fill-rule="evenodd"/></g><g clip-path="url(#3eb857555b)"><path fill="#74cae2" d="M 219.382812 103.992188 C 223.816406 103.992188 227.925781 102.152344 230.847656 99.234375 C 233.765625 96.3125 235.605469 92.203125 235.605469 87.769531 C 235.605469 83.335938 233.765625 79.226562 230.847656 76.304688 C 227.925781 73.386719 223.816406 71.546875 219.382812 71.546875 C 214.949219 71.546875 210.839844 73.386719 207.921875 76.304688 C 205 79.226562 203.160156 83.335938 203.160156 87.769531 C 203.160156 92.203125 205 96.3125 207.921875 99.234375 C 210.839844 102.152344 214.949219 103.992188 219.382812 103.992188 Z M 219.382812 103.992188 " fill-opacity="1" fill-rule="evenodd"/></g></svg>